# xmcd CD database file
#
# Track frame offsets:
#	187
#	26592
#	57285
#	78312
#	102777
#	125302
#	145600
#	186905
#	212202
#	236017
#	267845
#
# Disc length: 3813 seconds
#
# Revision: 32
# Processed by: cddbd v1.5.2PL0 Copyright (c) Steve Scherf et al.
# Submitted via: CDex 1.70beta3
#
DISCID=930ee30b
DTITLE=Mr.Children - DISCOVERY
DYEAR=1999
DGENRE=Rock
TTITLE0=DISCOVERY
TTITLE1=光の射す方へ
TTITLE2=Prism
TTITLE3=アンダーシャツ
TTITLE4=ニシエヒガシエ
TTITLE5=Simple
TTITLE6=I'll be
TTITLE7=#2601
TTITLE8=ラララ
TTITLE9=終わりなき旅
TTITLE10=Image
EXTD=YEAR: 1999
EXTT0=
EXTT1=
EXTT2=
EXTT3=
EXTT4=
EXTT5=
EXTT6=
EXTT7=
EXTT8=
EXTT9=
EXTT10=
PLAYORDER=
